<?xml version="1.0" standalone="no"?><!DOCTYPE svg PUBLIC "-//W3C//DTD SVG 1.1//EN" "http://www.w3.org/Graphics/SVG/1.1/DTD/svg11.dtd"><svg t="1634752057709" class="icon" viewBox="0 0 1024 1024" version="1.1" xmlns="http://www.w3.org/2000/svg" p-id="7577" xmlns:xlink="http://www.w3.org/1999/xlink" width="200" height="200"><defs><style type="text/css"></style></defs><path d="M1006.933333 529.066667a17.066667 17.066667 0 1 0 0-34.133334h-51.882666a441.0368 441.0368 0 0 0-10.5472-81.152l49.9712-13.397333a17.066667 17.066667 0 0 0-8.840534-32.9728l-50.005333 13.397333c-0.580267-1.860267-0.989867-3.7888-1.604267-5.649066-0.034133-0.1024 0-0.187733-0.034133-0.290134-0.034133-0.1024-0.119467-0.170667-0.170667-0.290133a439.978667 439.978667 0 0 0-29.627733-69.341867l44.919467-25.941333a17.0496 17.0496 0 0 0 6.2464-23.313067 17.0496 17.0496 0 0 0-23.313067-6.2464l-44.9536 25.9584a445.696 445.696 0 0 0-49.954133-64.750933l36.846933-36.846933a17.0496 17.0496 0 1 0-24.132267-24.132267l-36.846933 36.846933a447.470933 447.470933 0 0 0-64.682667-50.090666l25.873067-44.817067a17.0496 17.0496 0 0 0-29.508267-17.0496l-25.856 44.765867a440.661333 440.661333 0 0 0-75.656533-31.249067l13.397333-50.005333a17.066667 17.066667 0 0 0-32.9728-8.840534l-13.397333 49.988267A440.661333 440.661333 0 0 0 529.066667 68.9664V17.066667a17.066667 17.066667 0 1 0-34.133334 0v51.899733a441.0368 441.0368 0 0 0-81.152 10.5472l-13.397333-50.005333a17.066667 17.066667 0 1 0-32.9728 8.840533l13.397333 50.005333a441.8048 441.8048 0 0 0-75.656533 31.249067l-25.856-44.765867A17.015467 17.015467 0 0 0 256 68.608a17.0496 17.0496 0 0 0-6.2464 23.313067l25.873067 44.817066a447.0784 447.0784 0 0 0-64.682667 50.0736l-36.846933-36.846933a17.0496 17.0496 0 1 0-24.132267 24.132267l36.846933 36.846933a446.890667 446.890667 0 0 0-49.954133 64.750933l-44.9536-25.9584a17.066667 17.066667 0 1 0-17.0496 29.576534l44.919467 25.941333a441.582933 441.582933 0 0 0-29.627734 69.341867c-0.034133 0.1024-0.119467 0.170667-0.170666 0.290133-0.034133 0.1024 0 0.187733-0.034134 0.290133-0.597333 1.8432-1.024 3.771733-1.604266 5.649067l-50.005334-13.397333a17.066667 17.066667 0 0 0-8.840533 32.9728l49.9712 13.397333A443.579733 443.579733 0 0 0 68.949333 494.933333H17.066667a17.066667 17.066667 0 1 0 0 34.133334h51.729066c1.058133 27.784533 4.6592 54.920533 10.632534 81.186133l-49.92 13.3632a17.066667 17.066667 0 0 0 8.840533 32.9728l49.7664-13.329067a440.746667 440.746667 0 0 0 31.505067 75.5712l-44.782934 25.856a17.0496 17.0496 0 0 0 8.567467 31.8464c2.901333 0 5.8368-0.733867 8.516267-2.286933l44.919466-25.941333a448.170667 448.170667 0 0 0 49.8688 64.853333l-36.744533 36.744533a17.0496 17.0496 0 1 0 24.132267 24.132267l36.642133-36.625067a446.327467 446.327467 0 0 0 39.6288 32.699734c0.3072 0.256 0.477867 0.631467 0.8192 0.887466 0.477867 0.341333 1.024 0.477867 1.518933 0.768 7.4752 5.393067 15.223467 10.410667 23.022934 15.342934l-25.975467 44.970666a17.066667 17.066667 0 0 0 29.559467 17.066667l25.941333-44.919467a440.3712 440.3712 0 0 0 75.5712 31.402667l-13.397333 50.005333a17.066667 17.066667 0 0 0 32.9728 8.840534l13.397333-49.9712c26.248533 5.973333 53.384533 9.472 81.152 10.530133V1006.933333a17.066667 17.066667 0 1 0 34.133333 0v-51.882666a441.207467 441.207467 0 0 0 81.169067-10.530134l13.380267 49.9712a17.032533 17.032533 0 0 0 20.906666 12.066134 17.066667 17.066667 0 0 0 12.066134-20.906667l-13.397334-50.005333a442.299733 442.299733 0 0 0 75.5712-31.402667l25.924267 44.9024a17.066667 17.066667 0 1 0 29.559467-17.066667l-25.975467-44.970666c7.799467-4.949333 15.5648-9.949867 23.022933-15.36 0.494933-0.290133 1.041067-0.426667 1.501867-0.768 0.341333-0.238933 0.494933-0.6144 0.8192-0.887467a446.327467 446.327467 0 0 0 39.6288-32.699733l36.642133 36.625066a17.015467 17.015467 0 0 0 24.132267 0 17.0496 17.0496 0 0 0 0-24.132266l-36.744533-36.744534a446.293333 446.293333 0 0 0 49.8688-64.853333l44.919466 25.941333a17.032533 17.032533 0 0 0 23.313067-6.2464 17.066667 17.066667 0 0 0-6.2464-23.313066l-44.782933-25.856a439.9616 439.9616 0 0 0 31.505066-75.5712l49.7664 13.329066a17.066667 17.066667 0 0 0 8.840534-32.9728l-49.902934-13.3632c5.973333-26.2656 9.5744-53.384533 10.632534-81.186133H1006.933333zM512 921.6a407.125333 407.125333 0 0 1-226.628267-68.625067l130.696534-179.899733C444.177067 689.885867 476.928 699.733333 512 699.733333s67.822933-9.847467 95.9488-26.658133l130.696533 179.899733A407.210667 407.210667 0 0 1 512 921.6z m0-443.733333c18.824533 0 34.133333 15.3088 34.133333 34.133333s-15.3088 34.133333-34.133333 34.133333-34.133333-15.3088-34.133333-34.133333 15.3088-34.133333 34.133333-34.133333z m17.066667-152.7296V102.826667c168.2944 6.946133 310.6816 115.848533 366.848 266.478933l-211.421867 68.7104c-26.641067-61.832533-85.5552-106.5472-155.426133-112.878933z m-34.133334 0c-69.870933 6.331733-128.785067 51.0464-155.426133 112.878933L128.085333 369.3056C184.251733 218.6752 326.638933 109.7728 494.933333 102.826667v222.3104zM102.4 512c0-38.178133 5.358933-75.1104 15.189333-110.216533l211.456 68.7104c-3.037867 13.380267-4.778667 27.2384-4.778666 41.506133 0 56.200533 24.951467 106.564267 64.187733 141.0048l-130.645333 179.831467C163.2256 757.742933 102.4 641.877333 102.4 512z m663.773867 320.836267l-130.645334-179.831467C674.781867 618.564267 699.733333 568.200533 699.733333 512c0-14.267733-1.7408-28.125867-4.778666-41.489067l211.456-68.7104c9.8304 35.089067 15.189333 72.021333 15.189333 110.199467 0 129.877333-60.8256 245.742933-155.426133 320.836267z" fill="#556080" p-id="7578"></path></svg>