<?xml version="1.0" standalone="no"?><!DOCTYPE svg PUBLIC "-//W3C//DTD SVG 1.1//EN" "http://www.w3.org/Graphics/SVG/1.1/DTD/svg11.dtd"><svg t="1634835592145" class="icon" viewBox="0 0 1024 1024" version="1.1" xmlns="http://www.w3.org/2000/svg" p-id="10785" xmlns:xlink="http://www.w3.org/1999/xlink" width="200" height="200"><defs><style type="text/css"></style></defs><path d="M416.426667 768h-34.133334V546.133333h68.266667c37.546667 0 68.266667 30.72 68.266667 68.266667s-30.72 68.266667-68.266667 68.266667h-34.133333v85.333333z m0-119.466667h34.133333c20.48 0 34.133333-13.653333 34.133333-34.133333s-13.653333-34.133333-34.133333-34.133333h-34.133333v68.266666zM279.893333 785.066667c-37.546667 0-68.266667-30.72-68.266666-68.266667v-102.4c0-37.546667 30.72-68.266667 68.266666-68.266667s68.266667 30.72 68.266667 68.266667v102.4c0 37.546667-30.72 68.266667-68.266667 68.266667z m0-204.8c-20.48 0-34.133333 13.653333-34.133333 34.133333v102.4c0 20.48 13.653333 34.133333 34.133333 34.133333s34.133333-13.653333 34.133334-34.133333v-102.4c0-17.066667-13.653333-34.133333-34.133334-34.133333zM672.426667 785.066667h-119.466667v-238.933334h119.466667v34.133334h-85.333334v170.666666h85.333334z" fill="#FF9A22" p-id="10786"></path><path d="M570.026667 648.533333h68.266666v34.133334h-68.266666zM860.16 843.093333l-102.4-204.8v129.706667h-34.133333v-276.48l102.4 204.8v-133.12h34.133333z" fill="#FF9A22" p-id="10787"></path><path d="M928.426667 853.333333h-785.066667V477.866667h785.066667v375.466666z m-750.933334-34.133333h716.8v-307.2h-716.8v307.2z" fill="#2D3545" p-id="10788"></path><path d="M259.618133 497.186133l204.458667-306.756266 28.433067 18.944-204.458667 306.756266z" fill="#2D3545" p-id="10789"></path><path d="M535.893333 273.066667c-47.786667 0-85.333333-37.546667-85.333333-85.333334S491.52 102.4 535.893333 102.4s85.333333 37.546667 85.333334 85.333333S583.68 273.066667 535.893333 273.066667z m0-136.533334c-27.306667 0-51.2 23.893333-51.2 51.2S508.586667 238.933333 535.893333 238.933333s51.2-23.893333 51.2-51.2S566.613333 136.533333 535.893333 136.533333z" fill="#2D3545" p-id="10790"></path><path d="M588.9024 221.047467l28.672-18.5344 187.2896 289.450666-28.672 18.5344z" fill="#2D3545" p-id="10791"></path></svg>