<?xml version="1.0" standalone="no"?><!DOCTYPE svg PUBLIC "-//W3C//DTD SVG 1.1//EN" "http://www.w3.org/Graphics/SVG/1.1/DTD/svg11.dtd"><svg t="1634835395856" class="icon" viewBox="0 0 1024 1024" version="1.1" xmlns="http://www.w3.org/2000/svg" p-id="4067" xmlns:xlink="http://www.w3.org/1999/xlink" width="200" height="200"><defs><style type="text/css"></style></defs><path d="M474.185143 182.857143v103.990857l-20.242286 5.485714c-21.028571 5.705143-41.142857 14.08-59.977143 24.868572l-18.212571 10.441143-73.545143-73.545143a9.142857 9.142857 0 0 0-12.928 0l-53.467429 53.467428a9.142857 9.142857 0 0 0 0 12.928l73.545143 73.545143-10.441143 18.212572a254.281143 254.281143 0 0 0-24.868571 59.977142l-5.485714 20.242286H164.571429a9.142857 9.142857 0 0 0-9.142858 9.142857v75.629715a9.142857 9.142857 0 0 0 9.142858 9.142857h103.990857l5.485714 20.242285c5.705143 21.028571 14.08 41.142857 24.868571 59.977143l10.441143 18.212572-73.545143 73.545143a9.142857 9.142857 0 0 0 0 12.928l53.467429 53.467428a9.142857 9.142857 0 0 0 12.928 0l73.545143-73.545143 18.212571 10.441143c18.834286 10.788571 38.948571 19.163429 59.977143 24.868572l20.242286 5.485714V896a9.142857 9.142857 0 0 0 9.142857 9.142857h75.629714a9.142857 9.142857 0 0 0 9.142857-9.142857v-103.990857l20.242286-5.485714c21.028571-5.705143 41.142857-14.08 59.977143-24.868572l18.212571-10.441143 73.545143 73.545143a9.142857 9.142857 0 0 0 12.928 0l53.467429-53.467428a9.142857 9.142857 0 0 0 0-12.928l-73.545143-73.545143 10.441143-18.212572c10.788571-18.834286 19.163429-38.948571 24.868571-59.977143l5.485715-20.242285H877.714286a9.142857 9.142857 0 0 0 9.142857-9.142857v-75.629715a9.142857 9.142857 0 0 0-9.142857-9.142857h-103.990857l-5.485715-20.242286c-5.705143-21.028571-14.08-41.142857-24.868571-59.977142l-10.441143-18.212572 73.545143-73.545143a9.142857 9.142857 0 0 0 0-12.928l-53.467429-53.467428a9.142857 9.142857 0 0 0-12.928 0l-73.545143 73.545143-18.212571-10.441143a254.281143 254.281143 0 0 0-59.977143-24.868572l-20.242286-5.485714V182.857143a9.142857 9.142857 0 0 0-9.142857-9.142857h-75.629714a9.142857 9.142857 0 0 0-9.142857 9.142857z m-27.428572 0a36.571429 36.571429 0 0 1 36.571429-36.571429h75.629714a36.571429 36.571429 0 0 1 36.571429 36.571429v83.017143c23.497143 6.363429 45.787429 15.689143 66.450286 27.538285l58.697142-58.697142a36.571429 36.571429 0 0 1 51.730286 0l53.467429 53.449142a36.571429 36.571429 0 0 1 0 51.730286l-58.697143 58.697143a281.709714 281.709714 0 0 1 27.538286 66.450286H877.714286a36.571429 36.571429 0 0 1 36.571428 36.571428v75.629715a36.571429 36.571429 0 0 1-36.571428 36.571428h-83.017143a281.709714 281.709714 0 0 1-27.538286 66.450286l58.697143 58.697143a36.571429 36.571429 0 0 1 0 51.730285l-53.449143 53.467429a36.571429 36.571429 0 0 1-51.730286 0l-58.697142-58.697143a281.709714 281.709714 0 0 1-66.450286 27.538286V896a36.571429 36.571429 0 0 1-36.571429 36.571429h-75.629714a36.571429 36.571429 0 0 1-36.571429-36.571429v-83.017143a281.709714 281.709714 0 0 1-66.450285-27.538286l-58.697143 58.697143a36.571429 36.571429 0 0 1-51.730286 0l-53.467428-53.449143a36.571429 36.571429 0 0 1 0-51.730285l58.697142-58.697143a281.709714 281.709714 0 0 1-27.538285-66.450286H164.571429a36.571429 36.571429 0 0 1-36.571429-36.571428v-75.629715a36.571429 36.571429 0 0 1 36.571429-36.571428h83.017142a281.709714 281.709714 0 0 1 27.538286-66.450286l-58.697143-58.697143a36.571429 36.571429 0 0 1 0-51.730286l53.449143-53.467428a36.571429 36.571429 0 0 1 51.730286 0l58.697143 58.697143a281.709714 281.709714 0 0 1 66.450285-27.538286V182.857143zM521.142857 685.714286a146.285714 146.285714 0 1 1 0-292.571429 146.285714 146.285714 0 0 1 0 292.571429z m0-18.285715a128 128 0 1 0 0-256 128 128 0 0 0 0 256z" fill="#979797" p-id="4068"></path></svg>