<?xml version="1.0" standalone="no"?><!DOCTYPE svg PUBLIC "-//W3C//DTD SVG 1.1//EN" "http://www.w3.org/Graphics/SVG/1.1/DTD/svg11.dtd"><svg t="1634751947789" class="icon" viewBox="0 0 1024 1024" version="1.1" xmlns="http://www.w3.org/2000/svg" p-id="5112" xmlns:xlink="http://www.w3.org/1999/xlink" width="200" height="200"><defs><style type="text/css"></style></defs><path d="M646.4 704c-140.8 102.4-326.4 51.2-409.6-64-96-121.6-83.2-288 25.6-390.4 115.2-108.8 281.6-115.2 403.2-19.2 115.2 96 153.6 281.6 38.4 422.4 6.4 0 6.4 6.4 12.8 6.4l128 128c12.8 12.8 19.2 25.6 12.8 44.8-6.4 19.2-38.4 32-57.6 19.2l-19.2-19.2c-51.2-38.4-96-83.2-134.4-128zM243.2 460.8c0 128 102.4 224 224 224s224-102.4 224-224-102.4-224-224-224-224 102.4-224 224z" p-id="5113"></path></svg>