<svg viewBox="0 0 561.87 454.43" xmlns:xlink="http://www.w3.org/1999/xlink" xmlns="http://www.w3.org/2000/svg"><defs><style>.cls-1,.cls-16,.cls-17,.cls-30,.cls-34,.cls-35,.cls-41,.cls-42,.cls-43,.cls-45,.cls-46{fill-rule:evenodd;}.cls-1{fill:url(#未命名的渐变_111);}.cls-2{fill:#ab5c6d;}.cls-3{fill:#af6574;}.cls-4{fill:#b36f7a;}.cls-5{fill:#b77881;}.cls-6{fill:#bb8288;}.cls-7{fill:#bf8b8e;}.cls-8{fill:#c39595;}.cls-9{fill:#c79e9c;}.cls-10{fill:#cba8a2;}.cls-11{fill:#cfb1a9;}.cls-12{fill:url(#未命名的渐变_111-2);}.cls-13{fill:#c76b7c;}.cls-14{opacity:0.4;}.cls-15{fill:url(#未命名的渐变_168);}.cls-16{fill:#593038;}.cls-17{fill:url(#未命名的渐变_123);}.cls-18{fill:url(#未命名的渐变_185);}.cls-19{fill:#b891a2;}.cls-20{fill:url(#未命名的渐变_185-2);}.cls-21{fill:url(#未命名的渐变_185-3);}.cls-22{fill:url(#未命名的渐变_187);}.cls-23{fill:#f7f7f7;}.cls-24{fill:url(#未命名的渐变_187-2);}.cls-25{fill:url(#未命名的渐变_187-3);}.cls-26{fill:url(#未命名的渐变_187-4);}.cls-27{fill:url(#未命名的渐变_187-5);}.cls-28{fill:url(#未命名的渐变_118);}.cls-29{fill:url(#未命名的渐变_187-6);}.cls-30{fill:url(#未命名的渐变_123-2);}.cls-31{fill:url(#未命名的渐变_111-3);}.cls-32{fill:url(#未命名的渐变_128);}.cls-33{fill:url(#未命名的渐变_129);}.cls-34{opacity:0.5;fill:url(#未命名的渐变_201);}.cls-35{fill:url(#未命名的渐变_123-3);}.cls-36{fill:url(#未命名的渐变_111-4);}.cls-37{fill:url(#未命名的渐变_128-2);}.cls-38{fill:url(#未命名的渐变_129-2);}.cls-39{fill:url(#未命名的渐变_219);}.cls-40{fill:url(#未命名的渐变_220);}.cls-41{fill:url(#未命名的渐变_197);}.cls-42{fill:url(#未命名的渐变_111-5);}.cls-43{fill:url(#未命名的渐变_123-4);}.cls-44{fill:url(#未命名的渐变_187-7);}.cls-45{fill:url(#未命名的渐变_241);}.cls-46{fill:#fff1f5;}</style><linearGradient gradientUnits="userSpaceOnUse" y2="27.43" x2="84.49" y1="164.33" x1="322.19" id="未命名的渐变_111"><stop stop-color="#cc757e" offset="0"></stop><stop stop-color="#fbd3c4" offset="0.99"></stop></linearGradient><linearGradient xlink:href="#未命名的渐变_111" gradientTransform="matrix(-1, 0, 0, 1, 2475.18, 0)" y2="314.43" x2="2734.05" y1="314.43" x1="2119.07" id="未命名的渐变_111-2"></linearGradient><linearGradient gradientUnits="userSpaceOnUse" gradientTransform="matrix(-1, 0, 0, 1, 2475.18, 0)" y2="204.28" x2="2293.64" y1="172.52" x1="2293.64" id="未命名的渐变_168"><stop stop-color="#2e2b2c" offset="0"></stop><stop stop-opacity="0" stop-color="#db9495" offset="1"></stop></linearGradient><linearGradient gradientUnits="userSpaceOnUse" gradientTransform="matrix(-1, 0, 0, 1, 2475.18, 0)" y2="258.62" x2="2109.41" y1="258.62" x1="1922.97" id="未命名的渐变_123"><stop stop-color="#522332" offset="0"></stop><stop stop-color="#964852" offset="0.99"></stop></linearGradient><linearGradient gradientUnits="userSpaceOnUse" gradientTransform="matrix(1, 0, 0, -1, -1557.2, 265.1)" y2="159.08" x2="2016.19" y1="114.7" x1="2016.19" id="未命名的渐变_185"><stop stop-color="#57252e" offset="0"></stop><stop stop-color="#c6596b" offset="1"></stop></linearGradient><linearGradient xlink:href="#未命名的渐变_185" gradientTransform="matrix(1, 0, 0, -1, -1557.2, 510.83)" y2="268.72" x2="2016.19" y1="237.57" x1="2016.19" id="未命名的渐变_185-2"></linearGradient><linearGradient xlink:href="#未命名的渐变_185" gradientTransform="matrix(1, 0, 0, -1, -1557.2, 762.16)" y2="394.38" x2="2016.19" y1="363.23" x1="2016.19" id="未命名的渐变_185-3"></linearGradient><linearGradient gradientUnits="userSpaceOnUse" gradientTransform="matrix(1, 0, 0, -1, -1868.94, 525.74)" y2="270.08" x2="2172.06" y1="238.07" x1="2172.06" id="未命名的渐变_187"><stop stop-color="#74313e" offset="0"></stop><stop stop-color="#c65567" offset="0.99"></stop></linearGradient><linearGradient xlink:href="#未命名的渐变_187" gradientTransform="matrix(1, 0, 0, -1, -2031.05, 525.74)" y2="270.08" x2="2253.12" y1="238.07" x1="2253.12" id="未命名的渐变_187-2"></linearGradient><linearGradient xlink:href="#未命名的渐变_187" gradientTransform="matrix(1, 0, 0, -1, -2193.16, 525.74)" y2="270.08" x2="2334.17" y1="238.07" x1="2334.17" id="未命名的渐变_187-3"></linearGradient><linearGradient xlink:href="#未命名的渐变_187" gradientTransform="matrix(1, 0, 0, -1, -2355.27, 525.74)" y2="270.08" x2="2415.22" y1="238.07" x1="2415.22" id="未命名的渐变_187-4"></linearGradient><linearGradient xlink:href="#未命名的渐变_187" gradientTransform="matrix(1, 0, 0, -1, -1868.94, 777.07)" y2="395.74" x2="2172.06" y1="363.73" x1="2172.06" id="未命名的渐变_187-5"></linearGradient><linearGradient gradientUnits="userSpaceOnUse" gradientTransform="matrix(-1, 0, 0, 1, 2475.18, 0)" y2="402.68" x2="2187.64" y1="402.68" x1="2156.49" id="未命名的渐变_118"><stop stop-color="#f5e2e3" offset="0"></stop><stop stop-color="#fbd3c4" offset="0.99"></stop></linearGradient><linearGradient xlink:href="#未命名的渐变_187" gradientTransform="matrix(1, 0, 0, -1, -2355.27, 777.07)" y2="395.74" x2="2415.22" y1="363.73" x1="2415.22" id="未命名的渐变_187-6"></linearGradient><linearGradient xlink:href="#未命名的渐变_123" y2="43.76" x2="2116.08" y1="43.76" x1="2088.59" id="未命名的渐变_123-2"></linearGradient><linearGradient xlink:href="#未命名的渐变_111" gradientTransform="matrix(-1, 0, 0, 1, 2475.18, 0)" y2="43.76" x2="2149.04" y1="43.76" x1="2116.08" id="未命名的渐变_111-3"></linearGradient><linearGradient gradientUnits="userSpaceOnUse" gradientTransform="matrix(-1, 0, 0, 1, 2475.18, 0)" y2="3.06" x2="2152.01" y1="3.06" x1="2116.08" id="未命名的渐变_128"><stop stop-color="#ccc4c5" offset="0"></stop><stop stop-color="#fbfbfb" offset="0.99"></stop></linearGradient><linearGradient gradientUnits="userSpaceOnUse" gradientTransform="matrix(-1, 0, 0, 1, 2475.18, 0)" y2="3.06" x2="2116.08" y1="3.06" x1="2086.14" id="未命名的渐变_129"><stop stop-color="#4f4c4c" offset="0"></stop><stop stop-color="#828282" offset="0.99"></stop></linearGradient><linearGradient gradientUnits="userSpaceOnUse" y2="70.03" x2="226.07" y1="59.94" x1="213.43" id="未命名的渐变_201"><stop offset="0"></stop><stop stop-opacity="0" stop-color="#d68b8e" offset="0.99"></stop></linearGradient><linearGradient xlink:href="#未命名的渐变_123" y2="43.76" x2="2280.66" y1="43.76" x1="2253.17" id="未命名的渐变_123-3"></linearGradient><linearGradient xlink:href="#未命名的渐变_111" gradientTransform="matrix(-1, 0, 0, 1, 2475.18, 0)" y2="43.76" x2="2313.62" y1="43.76" x1="2280.66" id="未命名的渐变_111-4"></linearGradient><linearGradient xlink:href="#未命名的渐变_128" y2="3.06" x2="2316.59" y1="3.06" x1="2280.66" id="未命名的渐变_128-2"></linearGradient><linearGradient xlink:href="#未命名的渐变_129" y2="3.06" x2="2280.66" y1="3.06" x1="2250.73" id="未命名的渐变_129-2"></linearGradient><linearGradient gradientUnits="userSpaceOnUse" y2="420.89" x2="201.71" y1="392.28" x1="150.63" id="未命名的渐变_219"><stop stop-color="#61293b" offset="0"></stop><stop stop-color="#a8515c" offset="0.99"></stop></linearGradient><linearGradient gradientUnits="userSpaceOnUse" y2="467.78" x2="224.68" y1="390.74" x1="162.89" id="未命名的渐变_220"><stop stop-color="#401b22" offset="0"></stop><stop stop-color="#c65567" offset="0.99"></stop></linearGradient><linearGradient gradientUnits="userSpaceOnUse" gradientTransform="matrix(-1, 0, 0, 1, 2475.18, 0)" y2="357.03" x2="2339.98" y1="357.03" x1="2254.65" id="未命名的渐变_197"><stop stop-color="#8a4f55" offset="0"></stop><stop stop-color="#fbd3c4" offset="0.99"></stop></linearGradient><linearGradient xlink:href="#未命名的渐变_111" gradientTransform="matrix(-1, 0, 0, 1, 2475.18, 0)" y2="357.03" x2="2344.85" y1="357.03" x1="2259.51" id="未命名的渐变_111-5"></linearGradient><linearGradient xlink:href="#未命名的渐变_123" y2="128.05" x2="2261.14" y1="108.56" x1="2235.73" id="未命名的渐变_123-4"></linearGradient><linearGradient xlink:href="#未命名的渐变_187" gradientTransform="matrix(1, 0, 0, -1, -2107.22, 262.14)" y2="159.04" x2="2261.92" y1="124.38" x1="2298.2" id="未命名的渐变_187-7"></linearGradient><linearGradient gradientUnits="userSpaceOnUse" gradientTransform="matrix(-1, 0, 0, 1, 2475.18, 0)" y2="64.05" x2="2293.74" y1="116.15" x1="2196.68" id="未命名的渐变_241"><stop stop-color="#522332" offset="0.29"></stop><stop stop-color="#f6c8bc" offset="1"></stop></linearGradient></defs><g id="图层_2"><g id="图层_1-2"><polygon points="458.99 47.46 102.88 47.46 0 174.43 356.11 174.43 458.99 47.46" class="cls-1"></polygon><path d="M329.36,176a1.62,1.62,0,0,1-1-.36,1.61,1.61,0,0,1-.24-2.26l98.06-121a1.61,1.61,0,1,1,2.5,2l-98.05,121A1.6,1.6,0,0,1,329.36,176Z" class="cls-2"></path><path d="M296.5,176a1.63,1.63,0,0,1-1-.36,1.6,1.6,0,0,1-.23-2.26l98.05-121a1.61,1.61,0,0,1,2.51,2l-98.06,121A1.59,1.59,0,0,1,296.5,176Z" class="cls-3"></path><path d="M263.63,176a1.62,1.62,0,0,1-1-.36,1.61,1.61,0,0,1-.24-2.26l98.06-121a1.61,1.61,0,0,1,2.5,2l-98.06,121A1.57,1.57,0,0,1,263.63,176Z" class="cls-4"></path><path d="M230.76,176a1.62,1.62,0,0,1-1-.36,1.61,1.61,0,0,1-.24-2.26l98.06-121a1.61,1.61,0,1,1,2.5,2l-98,121A1.59,1.59,0,0,1,230.76,176Z" class="cls-5"></path><path d="M197.9,176a1.58,1.58,0,0,1-1-.36,1.61,1.61,0,0,1-.24-2.26l98-121a1.61,1.61,0,0,1,2.51,2l-98.06,121A1.59,1.59,0,0,1,197.9,176Z" class="cls-6"></path><path d="M165,176a1.62,1.62,0,0,1-1-.36,1.61,1.61,0,0,1-.24-2.26l98.06-121a1.61,1.61,0,1,1,2.5,2l-98,121A1.6,1.6,0,0,1,165,176Z" class="cls-7"></path><path d="M132.17,176a1.63,1.63,0,0,1-1-.36,1.6,1.6,0,0,1-.23-2.26L229,52.41a1.61,1.61,0,0,1,2.51,2l-98.06,121A1.59,1.59,0,0,1,132.17,176Z" class="cls-8"></path><path d="M99.3,176a1.61,1.61,0,0,1-1.25-2.62l98.06-121a1.61,1.61,0,1,1,2.5,2l-98.06,121A1.59,1.59,0,0,1,99.3,176Z" class="cls-9"></path><path d="M66.43,176a1.62,1.62,0,0,1-1-.36,1.61,1.61,0,0,1-.24-2.26l98.06-121a1.61,1.61,0,1,1,2.5,2l-98.05,121A1.6,1.6,0,0,1,66.43,176Z" class="cls-10"></path><path d="M33.57,176a1.63,1.63,0,0,1-1-.36,1.6,1.6,0,0,1-.23-2.26l98.05-121a1.61,1.61,0,0,1,2.51,2l-98.06,121A1.59,1.59,0,0,1,33.57,176Z" class="cls-11"></path><rect height="280" width="349.14" y="174.43" x="6.97" class="cls-12"></rect><rect height="11.36" width="356.11" y="174.43" class="cls-13"></rect><g class="cls-14"><rect height="14.94" width="349.14" y="185.79" x="6.97" class="cls-15"></rect></g><polygon points="458.99 47.46 561.87 174.43 561.87 454.43 356.11 454.43 356.11 174.43 458.99 47.46" class="cls-16"></polygon><polygon points="365.77 454.43 365.77 177.85 458.99 62.81 552.21 177.85 552.21 454.43 365.77 454.43" class="cls-17"></polygon><rect transform="translate(917.98 265.1) rotate(-180)" height="43.21" width="31.15" y="110.95" x="443.42" class="cls-18"></rect><path d="M474.57,111v43.2H443.42V111h31.15m3.22-3.23H440.2v49.65h37.59V107.72Z" class="cls-19"></path><rect height="3.55" width="31.15" y="128.03" x="443.42" class="cls-19"></rect><rect transform="translate(917.98 510.83) rotate(-180)" height="43.21" width="31.15" y="233.81" x="443.42" class="cls-20"></rect><path d="M474.57,233.81V277H443.42V233.81h31.15m3.22-3.22H440.2v49.65h37.59V230.59Z" class="cls-19"></path><rect height="3.55" width="31.15" y="250.89" x="443.42" class="cls-19"></rect><rect transform="translate(917.98 762.16) rotate(-180)" height="43.21" width="31.15" y="359.48" x="443.42" class="cls-21"></rect><path d="M474.57,359.48v43.2H443.42v-43.2h31.15m3.22-3.23H440.2V405.9h37.59V356.25Z" class="cls-19"></path><rect height="3.55" width="31.15" y="376.56" x="443.42" class="cls-19"></rect><rect transform="translate(606.24 525.74) rotate(-180)" height="58.12" width="31.15" y="233.81" x="287.55" class="cls-22"></rect><path d="M318.7,233.81v58.12H287.55V233.81H318.7m3.22-3.22H284.33v64.56h37.59V230.59Z" class="cls-23"></path><rect height="58.12" width="3.22" y="233.81" x="301.51" class="cls-23"></rect><rect height="3.22" width="31.15" y="246.77" x="287.55" class="cls-23"></rect><rect height="3.22" width="31.15" y="275.41" x="287.55" class="cls-23"></rect><rect transform="translate(444.13 525.74) rotate(-180)" height="58.12" width="31.15" y="233.81" x="206.49" class="cls-24"></rect><path d="M237.64,233.81v58.12H206.49V233.81h31.15m3.22-3.22H203.27v64.56h37.59V230.59Z" class="cls-23"></path><rect height="58.12" width="3.22" y="233.81" x="220.46" class="cls-23"></rect><rect height="3.22" width="31.15" y="246.77" x="206.49" class="cls-23"></rect><rect height="3.22" width="31.15" y="275.41" x="206.49" class="cls-23"></rect><rect transform="translate(282.03 525.74) rotate(-180)" height="58.12" width="31.15" y="233.81" x="125.44" class="cls-25"></rect><path d="M156.59,233.81v58.12H125.44V233.81h31.15m3.22-3.22H122.22v64.56h37.59V230.59Z" class="cls-23"></path><rect height="58.12" width="3.22" y="233.81" x="139.4" class="cls-23"></rect><rect height="3.22" width="31.15" y="246.77" x="125.44" class="cls-23"></rect><rect height="3.22" width="31.15" y="275.41" x="125.44" class="cls-23"></rect><rect transform="translate(119.92 525.74) rotate(-180)" height="58.12" width="31.15" y="233.81" x="44.38" class="cls-26"></rect><path d="M75.53,233.81v58.12H44.38V233.81H75.53m3.22-3.22H41.16v64.56H78.75V230.59Z" class="cls-23"></path><rect height="58.12" width="3.22" y="233.81" x="58.35" class="cls-23"></rect><rect height="3.22" width="31.15" y="246.77" x="44.38" class="cls-23"></rect><rect height="3.22" width="31.15" y="275.41" x="44.38" class="cls-23"></rect><rect transform="translate(606.24 777.07) rotate(-180)" height="58.12" width="31.15" y="359.48" x="287.55" class="cls-27"></rect><path d="M318.7,359.48v58.11H287.55V359.48H318.7m3.22-3.23H284.33v64.56h37.59V356.25Z" class="cls-23"></path><rect height="58.12" width="3.22" y="359.48" x="301.51" class="cls-23"></rect><rect height="3.22" width="31.15" y="372.44" x="287.55" class="cls-23"></rect><rect height="3.22" width="31.15" y="401.07" x="287.55" class="cls-28"></rect><rect transform="translate(119.92 777.07) rotate(-180)" height="58.12" width="31.15" y="359.48" x="44.38" class="cls-29"></rect><path d="M75.53,359.48v58.11H44.38V359.48H75.53m3.22-3.23H41.16v64.56H78.75V356.25Z" class="cls-23"></path><rect height="58.12" width="3.22" y="359.48" x="58.35" class="cls-23"></rect><rect height="3.22" width="31.15" y="372.44" x="44.38" class="cls-23"></rect><rect height="3.22" width="31.15" y="401.07" x="44.38" class="cls-23"></rect><polygon points="359.1 6.13 359.1 81.4 386.59 47.47 386.59 6.13 359.1 6.13" class="cls-30"></polygon><rect height="75.27" width="32.96" y="6.12" x="326.14" class="cls-31"></rect><rect height="6.13" width="35.93" x="323.18" class="cls-32"></rect><rect height="6.13" width="29.94" x="359.1" class="cls-33"></rect><polygon points="243.59 47.46 213.81 81.4 194.52 81.4 222.01 47.47 243.59 47.46" class="cls-34"></polygon><polygon points="194.52 6.13 194.52 81.4 222.01 47.47 222.01 6.13 194.52 6.13" class="cls-35"></polygon><rect height="75.27" width="32.96" y="6.12" x="161.56" class="cls-36"></rect><rect height="6.13" width="35.93" x="158.59" class="cls-37"></rect><rect height="6.13" width="29.94" x="194.52" class="cls-38"></rect><rect height="89.68" width="76.45" y="364.75" x="143.32" class="cls-39"></rect><rect height="80.89" width="57.24" y="373.54" x="152.92" class="cls-40"></rect><path d="M143.38,356.51s11.46-7.21,38.22-7.21,38.23,7.21,38.23,7.21v8.24H143.38Z" class="cls-41"></path><path d="M138.52,356.51s11.46-7.21,38.22-7.21S215,356.51,215,356.51v8.24H138.52Z" class="cls-42"></path><polygon points="210.1 104.77 210.1 157.37 242.13 117.85 242.13 104.77 210.1 104.77" class="cls-43"></polygon><rect transform="translate(367.97 262.14) rotate(-180)" height="52.61" width="52.24" y="104.77" x="157.87" class="cls-44"></rect><path d="M206.88,108v46.16H161.09V108h45.79m3.22-3.22H157.87v52.6H210.1v-52.6Z" class="cls-23"></path><polygon points="184.78 71.55 183.98 104.88 242.25 104.88 269.14 71.66 184.78 71.55" class="cls-45"></polygon><polygon points="184.78 71.55 210.1 104.88 157.87 104.77 184.78 71.55" class="cls-46"></polygon><rect height="49.73" width="3.22" y="107.64" x="182.37" class="cls-23"></rect></g></g></svg>